@startuml
class com.example.projectgame.HeavensGameView {
- Thread thread
- boolean isPlaying
- Background background1
- Background background2
- int screenX
- int score
- Paint paint
- Flight flight
+ {static} float screenRatioX
- List<Bullet> bullets
- Bird[] birds
- Random random
- SharedPreferences sp
- HeavensGameActivity activity
- MediaPlayer mp
- SharedPreferences.Editor edit
+ void run()
+ void resume()
+ void pause()
+ void update()
+ void updateBackground()
+ void updateFlight()
+ void draw()
+ void waitBeforeExiting()
+ void sleep()
+ boolean onTouchEvent(MotionEvent)
+ void newBullet()
+ void saveIfHighScore()
}
class com.example.projectgame.Dino {
~ int x
- int counter
~ int width
~ int speed
~ Bitmap dino1
~ boolean wasShot
+ Bitmap getDino()
+ Rect getCollisionShape()
}
class com.example.projectgame.MyBroadcastReceiver {
+ void onReceive(Context,Intent)
}
class com.example.projectgame.Background {
~ float x
~ Bitmap background
}
class com.example.projectgame.MainActivity {
- boolean isMute
- ImageView volume
- TextView tvHeavensHighScore
- TextView tvGroundHighScore
- SharedPreferences sp
- SharedPreferences.Editor editor
+ {static} boolean isOn
# void onCreate(Bundle)
+ boolean onCreateOptionsMenu(Menu)
+ boolean onOptionsItemSelected(MenuItem)
+ void createInstructionsDialog()
+ void createStatisticsDialog()
+ void createNotificationChannel()
# void onResume()
# void onDestroy()
# void onPause()
# void onStart()
# void onStop()
}
class com.example.projectgame.GroundGameView {
- boolean isPlaying
- Thread thread
- int screenX
+ {static} float screenRatioX
- GroundBackground background1
- GroundBackground background2
- Paint paint
- Robot robot
- List<Bullet> bullets
- Spikes spikes
- GroundGameActivity activity
- Dino dino
- int score
- SharedPreferences sp
- MediaPlayer mp
- double increaseSpeed
- SharedPreferences.Editor edit
+ void run()
+ void update()
+ void updateBackground()
+ void draw()
+ void sleep()
+ void resume()
+ void pause()
+ boolean onTouchEvent(MotionEvent)
+ void newBullet()
+ void waitBeforeExiting()
+ void saveIfHighScore()
}
class com.example.projectgame.ExampleInstrumentedTest {
+ void useAppContext()
}
class com.example.projectgame.Flight {
~ int toShoot
~ boolean isGoingUp
~ int x
~ int width
~ Bitmap flight1
- HeavensGameView heavensGameView
+ Bitmap getFlight()
+ Rect getCollisionShape()
}
class com.example.projectgame.BuildConfig {
+ {static} boolean DEBUG
+ {static} String APPLICATION_ID
+ {static} String BUILD_TYPE
+ {static} int VERSION_CODE
+ {static} String VERSION_NAME
}
class com.example.projectgame.Spikes {
- Bitmap spikes
~ int width
~ int x
- int counter
~ int speed
+ Bitmap getSpikes()
+ Rect getCollisionShape()
}
class com.example.projectgame.Robot {
~ Bitmap[] run
~ Bitmap dead
~ Bitmap[] jump
~ int x
~ int widthRun
~ boolean toShoot
- GroundGameView ggv
~ int runCounter
~ Boolean toJump
+ void setWidthAndHeight()
+ Bitmap getRobot()
+ Rect getCollisionShape()
}
class com.example.projectgame.HeavensGameActivity {
- HeavensGameView heavensGameView
- SensorManager senSensorManager
+ {static} float deltax
# void onCreate(Bundle)
# void onPause()
# void onResume()
+ void onSensorChanged(SensorEvent)
+ void onAccuracyChanged(Sensor,int)
}
class com.example.projectgame.GroundBackground {
~ float x
~ Bitmap background
}
class com.example.projectgame.GroundGameActivity {
- GroundGameView groundGameView
# void onCreate(Bundle)
# void onPause()
# void onResume()
# void onStart()
# void onRestart()
# void onStop()
# void onDestroy()
}
class com.example.projectgame.ExampleUnitTest {
+ void addition_isCorrect()
}
class com.example.projectgame.Bullet {
~ int x
~ Bitmap bullet
~ int width
+ Rect getCollisionShape()
}
class com.example.projectgame.Bird {
~ int x
~ Bitmap bird1
~ boolean wasShot
+ Bitmap getBird()
+ Rect getCollisionShape()
}


com.example.projectgame.Runnable <|.. com.example.projectgame.HeavensGameView
android.view.SurfaceView <|-- com.example.projectgame.HeavensGameView
android.content.BroadcastReceiver <|-- com.example.projectgame.MyBroadcastReceiver
androidx.appcompat.app.AppCompatActivity <|-- com.example.projectgame.MainActivity
com.example.projectgame.Runnable <|.. com.example.projectgame.GroundGameView
android.view.SurfaceView <|-- com.example.projectgame.GroundGameView
android.hardware.SensorEventListener <|.. com.example.projectgame.HeavensGameActivity
androidx.appcompat.app.AppCompatActivity <|-- com.example.projectgame.HeavensGameActivity
androidx.appcompat.app.AppCompatActivity <|-- com.example.projectgame.GroundGameActivity
@enduml